<?xml version="1.0" encoding="UTF-8" standalone="no"?>
<!-- Created with Inkscape (http://www.inkscape.org/) -->

<svg
   width="53.971905"
   height="49.634045"
   viewBox="0 0 14.280066 13.132341"
   version="1.1"
   id="svg5"
   sodipodi:docname="manga_fam.svg"
   inkscape:version="1.1.1 (3bf5ae0d25, 2021-09-20)"
   xmlns:inkscape="http://www.inkscape.org/namespaces/inkscape"
   xmlns:sodipodi="http://sodipodi.sourceforge.net/DTD/sodipodi-0.dtd"
   xmlns="http://www.w3.org/2000/svg"
   xmlns:svg="http://www.w3.org/2000/svg">
  <sodipodi:namedview
     id="namedview7"
     pagecolor="#ffffff"
     bordercolor="#666666"
     borderopacity="1.0"
     inkscape:pageshadow="2"
     inkscape:pageopacity="0.0"
     inkscape:pagecheckerboard="0"
     inkscape:document-units="px"
     showgrid="false"
     units="px"
     inkscape:zoom="1.9955107"
     inkscape:cx="-59.884421"
     inkscape:cy="50.864173"
     inkscape:window-width="1366"
     inkscape:window-height="745"
     inkscape:window-x="-8"
     inkscape:window-y="-8"
     inkscape:window-maximized="1"
     inkscape:current-layer="layer1"
     fit-margin-top="0"
     fit-margin-left="0"
     fit-margin-right="0"
     fit-margin-bottom="0" />
  <defs
     id="defs2">
    <rect
       x="-42.595612"
       y="14.282059"
       width="18.291058"
       height="46.35405"
       id="rect35905" />
    <rect
       x="19.543871"
       y="25.056244"
       width="53.119236"
       height="50.613609"
       id="rect17557" />
    <rect
       x="5.7629361"
       y="11.024747"
       width="46.35405"
       height="46.60461"
       id="rect9250" />
    <rect
       x="21.047243"
       y="18.792183"
       width="50.112488"
       height="55.624859"
       id="rect2696" />
  </defs>
  <g
     inkscape:label="Layer 1"
     inkscape:groupmode="layer"
     id="layer1"
     transform="translate(-6.0891335,-6.6629963)">
    <path
       d="M 19.298193,7.3570345 A 2.9702542,2.9798943 0 0 0 16.858682,6.7117461 L 14.58458,7.1260185 A 2.3800113,2.3877358 0 0 0 13.229163,7.8954664 2.3800113,2.3877358 0 0 0 11.870179,7.1260185 L 9.5996505,6.7117461 a 2.9750141,2.9846697 0 0 0 -3.510517,2.9357218 v 6.4427061 a 2.9750141,2.9846697 0 0 0 2.442486,2.936318 l 3.7401845,0.682293 a 5.3550253,5.3724055 0 0 0 1.914722,0 l 3.743163,-0.682293 a 2.9750141,2.9846697 0 0 0 2.43951,-2.936318 V 9.6474679 A 2.9648991,2.9745221 0 0 0 19.298193,7.3570345 Z M 12.634159,18.558495 c -0.04998,-0.0071 -0.09996,-0.01566 -0.149941,-0.02446 L 8.7446285,17.852319 A 1.7850084,1.7908018 0 0 1 7.2791385,16.09017 V 9.6474679 a 1.7850084,1.7908018 0 0 1 1.785006,-1.7908005 1.8332036,1.8391534 0 0 1 0.321303,0.029237 l 2.2729105,0.4178528 a 1.1900056,1.1938679 0 0 1 0.975801,1.1717811 z m 6.545035,-2.468321 a 1.7850084,1.7908018 0 0 1 -1.465493,1.762149 l -3.739592,0.681697 c -0.04998,0.0091 -0.09996,0.01731 -0.149942,0.02446 V 9.4755516 a 1.1900056,1.1938679 0 0 1 0.976999,-1.1747651 l 2.273506,-0.4178528 a 1.7850084,1.7908018 0 0 1 2.104525,1.7645369 z"
       id="path24391"
       style="fill:#9400d1;fill-opacity:1;stroke-width:0.595968" />
    <g
       aria-label="M"
       transform="matrix(0.37004692,0.0712598,-0.00554548,0.35300758,23.937677,0.99755739)"
       id="text35903"
       style="font-size:40px;line-height:1.25;font-family:Consolas;-inkscape-font-specification:Consolas;white-space:pre;shape-inside:url(#rect35905);fill:#9400d1">
      <path
         d="m -32.078125,48.988281 h -1.699219 l -0.253906,-7.958984 -0.107422,-3.056641 -0.595703,1.777344 -1.884766,5.078125 h -1.201171 l -1.796875,-4.882813 -0.595704,-1.972656 -0.03906,3.19336 -0.224609,7.822265 h -1.640625 l 0.625,-12.763672 h 2.060546 l 1.71875,4.804688 0.556641,1.621094 0.537109,-1.621094 1.806641,-4.804688 h 2.119141 z"
         style="font-size:20px;-inkscape-font-specification:'Consolas, Normal'"
         id="path60178" />
    </g>
    <g
       aria-label="F"
       transform="matrix(0.97409976,-0.17176007,0,1.0265889,0,0)"
       id="text49810"
       style="font-size:6.9747px;line-height:1.25;font-family:Consolas;-inkscape-font-specification:Consolas;fill:#9400d1;stroke-width:0.174368">
      <path
         d="m 18.044987,14.149799 h -1.890116 v 1.443981 h 1.791354 v 0.507436 h -1.791354 v 1.982068 h -0.619822 v -4.451139 h 2.509938 z"
         id="path60199" />
    </g>
  </g>
</svg>
